<svg xmlns="http://www.w3.org/2000/svg" viewBox="0 0 1440 320">
  <path fill="#ffd700" fill-opacity="1" d="M0,288L24,240C48,192,96,96,144,80C192,64,240,128,288,176C336,224,384,256,432,224C480,192,528,96,576,74.7C624,53,672,107,720,117.3C768,128,816,96,864,74.7C912,53,960,43,1008,85.3C1056,128,1104,224,1152,240C1200,256,1248,192,1296,192C1344,192,1392,256,1416,288L1440,320L1440,320L1416,320C1392,320,1344,320,1296,320C1248,320,1200,320,1152,320C1104,320,1056,320,1008,320C960,320,912,320,864,320C816,320,768,320,720,320C672,320,624,320,576,320C528,320,480,320,432,320C384,320,336,320,288,320C240,320,192,320,144,320C96,320,48,320,24,320L0,320Z"></path>
</svg>