<?xml version="1.0" encoding="iso-8859-1"?>
<!-- Generator: Adobe Illustrator 19.0.0, SVG Export Plug-In . SVG Version: 6.00 Build 0)  -->
<svg version="1.1" id="Capa_1" xmlns="http://www.w3.org/2000/svg" xmlns:xlink="http://www.w3.org/1999/xlink" x="0px" y="0px"
	 viewBox="0 0 512 512" style="enable-background:new 0 0 512 512;" xml:space="preserve">
<g>
	<g transform="translate(1 6)">
		<g>
			<polygon style="fill:#CFD8DC;" points="33.133,407.867 33.133,454.8 67.267,454.8 67.267,407.867 67.267,360.933 33.133,360.933 
							"/>
			<polygon style="fill:#CFD8DC;" points="101.4,407.867 101.4,454.8 135.533,454.8 135.533,407.867 135.533,360.933 101.4,360.933 
							"/>
			<polygon style="fill:#CFD8DC;" points="169.667,407.867 169.667,454.8 203.8,454.8 203.8,407.867 203.8,360.933 169.667,360.933 
							"/>
			<polygon style="fill:#CFD8DC;" points="237.933,407.867 237.933,454.8 272.067,454.8 272.067,407.867 272.067,360.933 
				237.933,360.933 			"/>
			<polygon style="fill:#CFD8DC;" points="306.2,407.867 306.2,454.8 340.333,454.8 340.333,407.867 340.333,360.933 306.2,360.933 
							"/>
			<polygon style="fill:#CFD8DC;" points="374.467,407.867 374.467,454.8 408.6,454.8 408.6,407.867 408.6,360.933 374.467,360.933 
							"/>
			<polygon style="fill:#CFD8DC;" points="442.733,360.933 442.733,407.867 442.733,454.8 476.867,454.8 476.867,407.867 
				476.867,360.933 			"/>
			<rect x="33.133" y="386.533" style="fill:#CFD8DC;" width="34.133" height="34.133"/>
			<rect x="101.4" y="386.533" style="fill:#CFD8DC;" width="34.133" height="34.133"/>
			<rect x="169.667" y="386.533" style="fill:#CFD8DC;" width="34.133" height="34.133"/>
			<rect x="237.933" y="386.533" style="fill:#CFD8DC;" width="34.133" height="34.133"/>
			<rect x="306.2" y="386.533" style="fill:#CFD8DC;" width="34.133" height="34.133"/>
			<rect x="374.467" y="386.533" style="fill:#CFD8DC;" width="34.133" height="34.133"/>
			<rect x="442.733" y="386.533" style="fill:#CFD8DC;" width="34.133" height="34.133"/>
			<polygon style="fill:#CFD8DC;" points="476.867,92.133 476.867,45.2 442.733,45.2 442.733,92.133 442.733,139.067 
				476.867,139.067 			"/>
			<polygon style="fill:#CFD8DC;" points="408.6,92.133 408.6,45.2 374.467,45.2 374.467,92.133 374.467,139.067 408.6,139.067 			
				"/>
			<polygon style="fill:#CFD8DC;" points="340.333,92.133 340.333,45.2 306.2,45.2 306.2,92.133 306.2,139.067 340.333,139.067 			
				"/>
			<polygon style="fill:#CFD8DC;" points="272.067,92.133 272.067,45.2 237.933,45.2 237.933,92.133 237.933,139.067 
				272.067,139.067 			"/>
			<polygon style="fill:#CFD8DC;" points="203.8,92.133 203.8,45.2 169.667,45.2 169.667,92.133 169.667,139.067 203.8,139.067 			
				"/>
			<polygon style="fill:#CFD8DC;" points="135.533,92.133 135.533,45.2 101.4,45.2 101.4,92.133 101.4,139.067 135.533,139.067 			
				"/>
			<polygon style="fill:#CFD8DC;" points="67.267,139.067 67.267,92.133 67.267,45.2 33.133,45.2 33.133,92.133 33.133,139.067 			
				"/>
			<rect x="442.733" y="79.333" style="fill:#CFD8DC;" width="34.133" height="34.133"/>
			<rect x="374.467" y="79.333" style="fill:#CFD8DC;" width="34.133" height="34.133"/>
			<rect x="306.2" y="79.333" style="fill:#CFD8DC;" width="34.133" height="34.133"/>
			<rect x="237.933" y="79.333" style="fill:#CFD8DC;" width="34.133" height="34.133"/>
			<rect x="169.667" y="79.333" style="fill:#CFD8DC;" width="34.133" height="34.133"/>
			<rect x="101.4" y="79.333" style="fill:#CFD8DC;" width="34.133" height="34.133"/>
			<rect x="33.133" y="79.333" style="fill:#CFD8DC;" width="34.133" height="34.133"/>
		</g>
		<path style="fill:#0377BC;" d="M502.467,130.533v238.933c-0.028,9.414-7.653,17.039-17.067,17.067H24.6
			c-9.414-0.028-17.039-7.652-17.067-17.067V275.6c14.138,0,25.6-11.461,25.6-25.6c0-14.138-11.462-25.6-25.6-25.6v-93.867
			c0.028-9.414,7.652-17.039,17.067-17.067h460.8C494.814,113.494,502.439,121.119,502.467,130.533z"/>
		<path style="fill:#02A9F4;" d="M476.867,130.533v238.933c-0.028,9.414-7.653,17.039-17.067,17.067H24.6
			c-9.414-0.028-17.039-7.652-17.067-17.067V275.6c14.138,0,25.6-11.461,25.6-25.6c0-14.138-11.462-25.6-25.6-25.6v-93.867
			c0.028-9.414,7.652-17.039,17.067-17.067h435.2C469.214,113.494,476.839,121.119,476.867,130.533z"/>
		<g>
			<path style="fill:#FFEB3A;" d="M323.181,301.2c-16.06,21.509-41.338,34.164-68.181,34.133V301.2H323.181z"/>
			<path style="fill:#FFEB3A;" d="M255,301.2v34.133c-26.843,0.031-52.122-12.624-68.181-34.133H255z"/>
		</g>
		<path style="fill:#1566C0;" d="M340.333,250c0.016,18.48-6.007,36.459-17.152,51.2H186.819c-22.869-30.303-22.869-72.097,0-102.4
			h136.363C334.327,213.541,340.35,231.52,340.333,250z"/>
		<g>
			<path style="fill:#FFEB3A;" d="M255,164.667V198.8h-68.181C202.878,177.291,228.157,164.636,255,164.667z"/>
			<path style="fill:#FFEB3A;" d="M323.181,198.8H255v-34.133C281.843,164.636,307.122,177.291,323.181,198.8z"/>
			<path style="fill:#FFEB3A;" d="M237.933,232.933h34.133c4.713,0,8.533,3.821,8.533,8.533v17.067c0,4.713-3.82,8.533-8.533,8.533
				h-34.133c-4.713,0-8.533-3.82-8.533-8.533v-17.067C229.4,236.754,233.221,232.933,237.933,232.933z"/>
		</g>
	</g>
	<g>
		<path d="M486.4,110.933V51.2c0.001-2.263-0.898-4.434-2.499-6.035c-1.6-1.6-3.771-2.499-6.035-2.499h-8.533V8.533
			c0-4.713-3.82-8.533-8.533-8.533s-8.533,3.821-8.533,8.533v34.133h-8.533c-2.263-0.001-4.434,0.898-6.035,2.499
			s-2.499,3.771-2.499,6.035v59.733h-17.067V51.2c0.001-2.263-0.898-4.434-2.499-6.035s-3.771-2.499-6.035-2.499h-8.533V8.533
			c0-4.713-3.82-8.533-8.533-8.533S384,3.821,384,8.533v34.133h-8.533c-2.263-0.001-4.434,0.898-6.035,2.499
			c-1.6,1.6-2.499,3.771-2.499,6.035v59.733h-17.067V51.2c0.001-2.263-0.898-4.434-2.499-6.035c-1.6-1.6-3.771-2.499-6.035-2.499
			H332.8V8.533c0-4.713-3.82-8.533-8.533-8.533s-8.533,3.821-8.533,8.533v34.133H307.2c-2.263-0.001-4.434,0.898-6.035,2.499
			c-1.6,1.6-2.499,3.771-2.499,6.035v59.733H281.6V51.2c0.001-2.263-0.898-4.434-2.499-6.035c-1.6-1.6-3.771-2.499-6.035-2.499
			h-8.533V8.533C264.533,3.821,260.713,0,256,0c-4.713,0-8.533,3.821-8.533,8.533v34.133h-8.533
			c-2.263-0.001-4.434,0.898-6.035,2.499c-1.6,1.6-2.499,3.771-2.499,6.035v59.733h-17.067V51.2
			c0.001-2.263-0.898-4.434-2.499-6.035s-3.771-2.499-6.035-2.499h-8.533V8.533c0-4.713-3.821-8.533-8.533-8.533
			c-4.713,0-8.533,3.821-8.533,8.533v34.133h-8.533c-2.263-0.001-4.434,0.898-6.035,2.499c-1.6,1.6-2.499,3.771-2.499,6.035v59.733
			h-17.067V51.2c0.001-2.263-0.898-4.434-2.499-6.035c-1.6-1.6-3.771-2.499-6.035-2.499H128V8.533C128,3.821,124.179,0,119.467,0
			c-4.713,0-8.533,3.821-8.533,8.533v34.133H102.4c-2.263-0.001-4.434,0.898-6.035,2.499s-2.499,3.771-2.499,6.035v59.733H76.8V51.2
			c0.001-2.263-0.898-4.434-2.499-6.035s-3.771-2.499-6.035-2.499h-8.533V8.533C59.733,3.821,55.913,0,51.2,0
			s-8.533,3.821-8.533,8.533v34.133h-8.533c-2.263-0.001-4.434,0.898-6.035,2.499c-1.6,1.6-2.499,3.771-2.499,6.035v59.733
			c-14.132,0.015-25.585,11.468-25.6,25.6V230.4c-0.001,2.263,0.898,4.434,2.499,6.035c1.6,1.6,3.771,2.499,6.035,2.499
			c9.426,0,17.067,7.641,17.067,17.067c0,9.426-7.641,17.067-17.067,17.067c-2.263-0.001-4.434,0.898-6.035,2.499
			c-1.6,1.6-2.499,3.771-2.499,6.035v93.867c0.015,14.132,11.468,25.585,25.6,25.6V460.8c-0.001,2.263,0.898,4.434,2.499,6.035
			c1.6,1.6,3.771,2.499,6.035,2.499h8.533v34.133c0,4.713,3.821,8.533,8.533,8.533s8.533-3.82,8.533-8.533v-34.133h8.533
			c2.263,0.001,4.434-0.898,6.035-2.499c1.6-1.6,2.499-3.771,2.499-6.035v-59.733h17.067V460.8
			c-0.001,2.263,0.898,4.434,2.499,6.035c1.6,1.6,3.771,2.499,6.035,2.499h8.533v34.133c0,4.713,3.82,8.533,8.533,8.533
			c4.713,0,8.533-3.82,8.533-8.533v-34.133h8.533c2.263,0.001,4.434-0.898,6.035-2.499c1.6-1.6,2.499-3.771,2.499-6.035v-59.733
			h17.067V460.8c-0.001,2.263,0.898,4.434,2.499,6.035c1.6,1.6,3.771,2.499,6.035,2.499h8.533v34.133
			c0,4.713,3.821,8.533,8.533,8.533c4.713,0,8.533-3.82,8.533-8.533v-34.133h8.533c2.263,0.001,4.434-0.898,6.035-2.499
			c1.6-1.6,2.499-3.771,2.499-6.035v-59.733H230.4V460.8c-0.001,2.263,0.898,4.434,2.499,6.035c1.6,1.6,3.771,2.499,6.035,2.499
			h8.533v34.133c0,4.713,3.821,8.533,8.533,8.533c4.713,0,8.533-3.82,8.533-8.533v-34.133h8.533
			c2.263,0.001,4.434-0.898,6.035-2.499c1.6-1.6,2.499-3.771,2.499-6.035v-59.733h17.067V460.8
			c-0.001,2.263,0.898,4.434,2.499,6.035c1.6,1.6,3.771,2.499,6.035,2.499h8.533v34.133c0,4.713,3.821,8.533,8.533,8.533
			s8.533-3.82,8.533-8.533v-34.133h8.533c2.263,0.001,4.434-0.898,6.035-2.499c1.6-1.6,2.499-3.771,2.499-6.035v-59.733h17.067
			V460.8c-0.001,2.263,0.898,4.434,2.499,6.035c1.6,1.6,3.771,2.499,6.035,2.499H384v34.133c0,4.713,3.82,8.533,8.533,8.533
			s8.533-3.82,8.533-8.533v-34.133h8.533c2.263,0.001,4.434-0.898,6.035-2.499c1.6-1.6,2.499-3.771,2.499-6.035v-59.733H435.2V460.8
			c-0.001,2.263,0.898,4.434,2.499,6.035c1.6,1.6,3.771,2.499,6.035,2.499h8.533v34.133c0,4.713,3.82,8.533,8.533,8.533
			s8.533-3.82,8.533-8.533v-34.133h8.533c2.263,0.001,4.434-0.898,6.035-2.499c1.6-1.6,2.499-3.771,2.499-6.035v-59.733
			c14.132-0.015,25.585-11.468,25.6-25.6V136.533C511.985,122.401,500.532,110.949,486.4,110.933z M469.333,59.733V76.8h-17.067
			V59.733H469.333z M452.267,93.867h17.067v17.067h-17.067V93.867z M401.067,59.733V76.8H384V59.733H401.067z M384,93.867h17.067
			v17.067H384V93.867z M332.8,59.733V76.8h-17.067V59.733H332.8z M315.733,93.867H332.8v17.067h-17.067V93.867z M264.533,59.733
			V76.8h-17.067V59.733H264.533z M247.467,93.867h17.067v17.067h-17.067V93.867z M196.267,59.733V76.8H179.2V59.733H196.267z
			 M179.2,93.867h17.067v17.067H179.2V93.867z M128,59.733V76.8h-17.067V59.733H128z M110.933,93.867H128v17.067h-17.067V93.867z
			 M59.733,59.733V76.8H42.667V59.733H59.733z M42.667,93.867h17.067v17.067H42.667V93.867z M42.667,452.267V435.2h17.067v17.067
			H42.667z M59.733,418.133H42.667v-17.067h17.067V418.133z M110.933,452.267V435.2H128v17.067H110.933z M128,418.133h-17.067
			v-17.067H128V418.133z M179.2,452.267V435.2h17.067v17.067H179.2z M196.267,418.133H179.2v-17.067h17.067V418.133z
			 M247.467,452.267V435.2h17.067v17.067H247.467z M264.533,418.133h-17.067v-17.067h17.067V418.133z M315.733,452.267V435.2H332.8
			v17.067H315.733z M332.8,418.133h-17.067v-17.067H332.8V418.133z M384,452.267V435.2h17.067v17.067H384z M401.067,418.133H384
			v-17.067h17.067V418.133z M452.267,452.267V435.2h17.067v17.067H452.267z M469.333,418.133h-17.067v-17.067h17.067V418.133z
			 M494.933,375.467c-0.005,4.711-3.822,8.529-8.533,8.533H25.6c-4.711-0.005-8.529-3.822-8.533-8.533v-86.412
			c15.071-3.894,25.6-17.488,25.6-33.054s-10.529-29.161-25.6-33.054v-86.412c0.005-4.711,3.822-8.529,8.533-8.533h460.8
			c4.711,0.005,8.529,3.822,8.533,8.533V375.467z"/>
		<path d="M256,162.133c-51.841,0-93.867,42.026-93.867,93.867s42.026,93.867,93.867,93.867s93.867-42.026,93.867-93.867
			C349.808,204.183,307.817,162.192,256,162.133z M207.834,196.267c11.355-9.197,25.109-14.946,39.632-16.563v16.563H207.834z
			 M264.533,179.703c14.523,1.617,28.277,7.366,39.632,16.563h-39.632V179.703z M192.186,213.333h127.628
			c17.315,25.81,17.315,59.524,0,85.333H192.186C174.871,272.857,174.871,239.143,192.186,213.333z M247.467,332.297
			c-14.523-1.617-28.277-7.366-39.632-16.563h39.632V332.297z M264.533,315.733h39.632c-11.355,9.197-25.109,14.946-39.632,16.563
			V315.733z"/>
		<path d="M238.933,281.6h34.133c9.421-0.011,17.056-7.645,17.067-17.067v-17.067c-0.011-9.421-7.645-17.056-17.067-17.067h-34.133
			c-9.421,0.011-17.056,7.645-17.067,17.067v17.067C221.877,273.955,229.512,281.589,238.933,281.6z M238.933,247.467h34.133
			l0.009,17.067h-34.142V247.467z"/>
		<path d="M110.933,145.067H42.667c-4.713,0-8.533,3.82-8.533,8.533s3.821,8.533,8.533,8.533h68.267
			c4.713,0,8.533-3.821,8.533-8.533S115.646,145.067,110.933,145.067z"/>
		<path d="M153.6,145.067h-8.533c-4.713,0-8.533,3.82-8.533,8.533s3.821,8.533,8.533,8.533h8.533c4.713,0,8.533-3.821,8.533-8.533
			S158.313,145.067,153.6,145.067z"/>
		<path d="M469.333,349.867h-68.267c-4.713,0-8.533,3.82-8.533,8.533s3.82,8.533,8.533,8.533h68.267c4.713,0,8.533-3.82,8.533-8.533
			S474.046,349.867,469.333,349.867z"/>
		<path d="M366.933,349.867H358.4c-4.713,0-8.533,3.82-8.533,8.533s3.82,8.533,8.533,8.533h8.533c4.713,0,8.533-3.82,8.533-8.533
			S371.646,349.867,366.933,349.867z"/>
	</g>
</g>
<g>
</g>
<g>
</g>
<g>
</g>
<g>
</g>
<g>
</g>
<g>
</g>
<g>
</g>
<g>
</g>
<g>
</g>
<g>
</g>
<g>
</g>
<g>
</g>
<g>
</g>
<g>
</g>
<g>
</g>
</svg>
